<svg width="24" height="24" viewBox="0 0 24 24" fill="none" xmlns="http://www.w3.org/2000/svg">
<path d="M12.9951 3.90137C12.9724 3.67237 12.8712 3.45711 12.707 3.29297C12.5429 3.12883 12.3276 3.02757 12.0986 3.00488L12 3C11.7348 3 11.4805 3.10543 11.293 3.29297C11.1054 3.48051 11 3.73478 11 4V14.54C11 14.8973 10.8094 15.2276 10.5 15.4062C9.92812 15.7365 9.48122 16.2463 9.22851 16.8564C8.97592 17.4664 8.9317 18.1425 9.10254 18.7803C9.27345 19.4181 9.64995 19.9818 10.1738 20.3838C10.6978 20.7858 11.3396 21.0039 12 21.0039C12.6604 21.0039 13.3022 20.7858 13.8262 20.3838C14.35 19.9818 14.7265 19.4181 14.8975 18.7803C15.0683 18.1425 15.0241 17.4664 14.7715 16.8564C14.5503 16.3225 14.1803 15.8652 13.708 15.5381L13.5 15.4062C13.1906 15.2276 13 14.8973 13 14.54V4L12.9951 3.90137ZM15 14.0039C15.7142 14.5395 16.2747 15.2593 16.6191 16.0908C17.0403 17.1076 17.1148 18.2348 16.8301 19.2979C16.5452 20.361 15.9171 21.3007 15.0439 21.9707C14.1707 22.6407 13.1007 23.0039 12 23.0039C10.8993 23.0039 9.82927 22.6407 8.95605 21.9707C8.08292 21.3007 7.45478 20.361 7.16992 19.2979C6.88518 18.2348 6.95972 17.1076 7.38086 16.0908C7.72527 15.2593 8.28581 14.5395 9 14.0039V4C9 3.20435 9.3163 2.44151 9.8789 1.87891C10.4415 1.3163 11.2043 1 12 1L12.2969 1.01465C12.9835 1.08291 13.6289 1.38671 14.1211 1.87891C14.6837 2.44152 15 3.20435 15 4V14.0039Z" fill="white"/>
</svg>
