<svg width="24" height="24" viewBox="0 0 24 24" fill="none" xmlns="http://www.w3.org/2000/svg">
<path d="M18.9951 3.90137C18.9724 3.67237 18.8712 3.45711 18.707 3.29297C18.5429 3.12883 18.3276 3.02757 18.0986 3.00488L18 3C17.7348 3 17.4805 3.10543 17.293 3.29297C17.1054 3.48051 17 3.73478 17 4V14.54C17 14.8973 16.8094 15.2276 16.5 15.4062C15.9281 15.7365 15.4812 16.2463 15.2285 16.8564C14.9759 17.4664 14.9317 18.1425 15.1025 18.7803C15.2734 19.4181 15.65 19.9818 16.1738 20.3838C16.6978 20.7858 17.3396 21.0039 18 21.0039C18.6604 21.0039 19.3022 20.7858 19.8262 20.3838C20.35 19.9818 20.7265 19.4181 20.8975 18.7803C21.0683 18.1425 21.0241 17.4664 20.7715 16.8564C20.5503 16.3225 20.1803 15.8652 19.708 15.5381L19.5 15.4062C19.1906 15.2276 19 14.8973 19 14.54V4L18.9951 3.90137ZM21 14.0039C21.7142 14.5395 22.2747 15.2593 22.6191 16.0908C23.0403 17.1076 23.1148 18.2348 22.8301 19.2979C22.5452 20.361 21.9171 21.3007 21.0439 21.9707C20.1707 22.6407 19.1007 23.0039 18 23.0039C16.8993 23.0039 15.8293 22.6407 14.9561 21.9707C14.0829 21.3007 13.4548 20.361 13.1699 19.2979C12.8852 18.2348 12.9597 17.1076 13.3809 16.0908C13.7253 15.2593 14.2858 14.5395 15 14.0039V4C15 3.20435 15.3163 2.44151 15.8789 1.87891C16.4415 1.3163 17.2043 1 18 1L18.2969 1.01465C18.9835 1.08291 19.6289 1.38671 20.1211 1.87891C20.6837 2.44152 21 3.20435 21 4V14.0039Z" fill="white"/>
<path d="M11 4V2C11 1.44772 11.4477 1 12 1C12.5523 1 13 1.44772 13 2V4C13 4.55228 12.5523 5 12 5C11.4477 5 11 4.55228 11 4Z" fill="white"/>
<path d="M4 11C4.55228 11 5 11.4477 5 12C5 12.5523 4.55228 13 4 13H2C1.44772 13 1 12.5523 1 12C1 11.4477 1.44772 11 2 11H4Z" fill="white"/>
<path d="M4 16C4.55228 16 5 16.4477 5 17C5 17.5523 4.55228 18 4 18H2C1.44772 18 1 17.5523 1 17C1 16.4477 1.44772 16 2 16H4Z" fill="white"/>
<path d="M4 6C4.55228 6 5 6.44772 5 7C5 7.55228 4.55228 8 4 8H2C1.44772 8 1 7.55228 1 7C1 6.44772 1.44772 6 2 6H4Z" fill="white"/>
<path d="M6 22V20C6 19.4477 6.44772 19 7 19C7.55228 19 8 19.4477 8 20V22C8 22.5523 7.55228 23 7 23C6.44772 23 6 22.5523 6 22Z" fill="white"/>
<path d="M6 4V2C6 1.44772 6.44772 1 7 1C7.55228 1 8 1.44772 8 2V4C8 4.55228 7.55228 5 7 5C6.44772 5 6 4.55228 6 4Z" fill="white"/>
<path d="M3 18V6C3 4.34315 4.34315 3 6 3H12C12.5523 3 13 3.44772 13 4C13 4.55228 12.5523 5 12 5H6C5.44772 5 5 5.44772 5 6V18C5 18.5523 5.44772 19 6 19H10C10.5523 19 11 19.4477 11 20C11 20.5523 10.5523 21 10 21H6C4.34315 21 3 19.6569 3 18Z" fill="white"/>
<path d="M7 15V9C7 7.89543 7.89543 7 9 7H12C12.5523 7 13 7.44772 13 8C13 8.55228 12.5523 9 12 9H9V15H10.5C11.0523 15 11.5 15.4477 11.5 16C11.5 16.5523 11.0523 17 10.5 17H9C7.89543 17 7 16.1046 7 15Z" fill="white"/>
</svg>
